<svg width="40" height="40" viewBox="0 0 40 40" fill="none" xmlns="http://www.w3.org/2000/svg">
<g clip-path="url(#clip0_2024_140)">
<path d="M20 40C31.0457 40 40 31.0457 40 20C40 8.9543 31.0457 0 20 0C8.9543 0 0 8.9543 0 20C0 31.0457 8.9543 40 20 40Z" fill="white"/>
<path d="M31.2549 8.4375L21.5 15.6826L23.3039 11.4081L31.2549 8.4375Z" fill="#E2761B" stroke="#E2761B" stroke-linecap="round" stroke-linejoin="round"/>
<path d="M8.73529 8.4375L18.4118 15.7512L16.6961 11.4081L8.73529 8.4375Z" fill="#E4761B" stroke="#E4761B" stroke-linecap="round" stroke-linejoin="round"/>
<path d="M27.7451 25.2316L25.1471 29.212L30.7059 30.7414L32.304 25.3199L27.7451 25.2316Z" fill="#E4761B" stroke="#E4761B" stroke-linecap="round" stroke-linejoin="round"/>
<path d="M7.70587 25.3199L9.29411 30.7414L14.8529 29.212L12.2549 25.2316L7.70587 25.3199Z" fill="#E4761B" stroke="#E4761B" stroke-linecap="round" stroke-linejoin="round"/>
<path d="M14.5392 18.5061L12.9902 20.8492L18.5098 21.0943L18.3137 15.163L14.5392 18.5061Z" fill="#E4761B" stroke="#E4761B" stroke-linecap="round" stroke-linejoin="round"/>
<path d="M25.451 18.5061L21.6274 15.0944L21.5 21.0944L27.0098 20.8493L25.451 18.5061Z" fill="#E4761B" stroke="#E4761B" stroke-linecap="round" stroke-linejoin="round"/>
<path d="M14.853 29.212L18.1667 27.5944L15.3039 25.3591L14.853 29.212Z" fill="#E4761B" stroke="#E4761B" stroke-linecap="round" stroke-linejoin="round"/>
<path d="M21.8235 27.5944L25.1471 29.212L24.6863 25.3591L21.8235 27.5944Z" fill="#E4761B" stroke="#E4761B" stroke-linecap="round" stroke-linejoin="round"/>
<path d="M25.1471 29.212L21.8235 27.5944L22.0883 29.761L22.0588 30.6728L25.1471 29.212Z" fill="#D7C1B3" stroke="#D7C1B3" stroke-linecap="round" stroke-linejoin="round"/>
<path d="M14.8529 29.212L17.9412 30.6728L17.9216 29.761L18.1667 27.5944L14.8529 29.212Z" fill="#D7C1B3" stroke="#D7C1B3" stroke-linecap="round" stroke-linejoin="round"/>
<path d="M17.9902 23.9277L15.2255 23.114L17.1765 22.2218L17.9902 23.9277Z" fill="#233447" stroke="#233447" stroke-linecap="round" stroke-linejoin="round"/>
<path d="M22 23.9277L22.8137 22.2218L24.7745 23.114L22 23.9277Z" fill="#233447" stroke="#233447" stroke-linecap="round" stroke-linejoin="round"/>
<path d="M14.853 29.212L15.3235 25.2316L12.2549 25.3198L14.853 29.212Z" fill="#CD6116" stroke="#CD6116" stroke-linecap="round" stroke-linejoin="round"/>
<path d="M24.6765 25.2316L25.1471 29.212L27.7451 25.3198L24.6765 25.2316Z" fill="#CD6116" stroke="#CD6116" stroke-linecap="round" stroke-linejoin="round"/>
<path d="M27.0098 20.8492L21.5 21.0943L22.0098 23.9277L22.8235 22.2218L24.7843 23.1139L27.0098 20.8492Z" fill="#CD6116" stroke="#CD6116" stroke-linecap="round" stroke-linejoin="round"/>
<path d="M15.2255 23.1139L17.1863 22.2218L17.9902 23.9277L18.5098 21.0943L12.9902 20.8492L15.2255 23.1139Z" fill="#CD6116" stroke="#CD6116" stroke-linecap="round" stroke-linejoin="round"/>
<path d="M12.9902 20.8492L15.3039 25.359L15.2255 23.1139L12.9902 20.8492Z" fill="#E4751F" stroke="#E4751F" stroke-linecap="round" stroke-linejoin="round"/>
<path d="M24.7843 23.1139L24.6862 25.359L27.0098 20.8492L24.7843 23.1139Z" fill="#E4751F" stroke="#E4751F" stroke-linecap="round" stroke-linejoin="round"/>
<path d="M18.5098 21.0944L17.9902 23.9277L18.6373 27.2708L18.7843 22.8689L18.5098 21.0944Z" fill="#E4751F" stroke="#E4751F" stroke-linecap="round" stroke-linejoin="round"/>
<path d="M21.5 21.0944L21.2353 22.8591L21.3529 27.2708L22.0098 23.9277L21.5 21.0944Z" fill="#E4751F" stroke="#E4751F" stroke-linecap="round" stroke-linejoin="round"/>
<path d="M22.0098 23.9277L21.3529 27.2708L21.8235 27.5943L24.6863 25.3591L24.7843 23.114L22.0098 23.9277Z" fill="#F6851B" stroke="#F6851B" stroke-linecap="round" stroke-linejoin="round"/>
<path d="M15.2255 23.114L15.3039 25.3591L18.1667 27.5943L18.6373 27.2708L17.9902 23.9277L15.2255 23.114Z" fill="#F6851B" stroke="#F6851B" stroke-linecap="round" stroke-linejoin="round"/>
<path d="M22.0588 30.6728L22.0882 29.7611L21.8431 29.5454H18.1471L17.9216 29.7611L17.9412 30.6728L14.8529 29.212L15.9314 30.0944L18.1176 31.614H21.8725L24.0686 30.0944L25.1471 29.212L22.0588 30.6728Z" fill="#C0AD9E" stroke="#C0AD9E" stroke-linecap="round" stroke-linejoin="round"/>
<path d="M21.8235 27.5943L21.3529 27.2708H18.6372L18.1666 27.5943L17.9215 29.761L18.147 29.5453H21.8431L22.0882 29.761L21.8235 27.5943Z" fill="#161616" stroke="#161616" stroke-linecap="round" stroke-linejoin="round"/>
<path d="M31.6667 16.1532L32.5 12.1532L31.2549 8.4375L21.8235 15.4375L25.451 18.5061L30.5784 20.0061L31.7157 18.6826L31.2255 18.3297L32.0098 17.614L31.4019 17.1434L32.1863 16.5453L31.6667 16.1532Z" fill="#763D16" stroke="#763D16" stroke-linecap="round" stroke-linejoin="round"/>
<path d="M7.5 12.1532L8.33333 16.1532L7.80392 16.5453L8.58824 17.1434L7.9902 17.614L8.77451 18.3297L8.28431 18.6826L9.41176 20.0061L14.5392 18.5061L18.1667 15.4375L8.73529 8.4375L7.5 12.1532Z" fill="#763D16" stroke="#763D16" stroke-linecap="round" stroke-linejoin="round"/>
<path d="M30.5784 20.0061L25.451 18.5061L27.0098 20.8492L24.6863 25.359L27.7451 25.3198H32.3039L30.5784 20.0061Z" fill="#F6851B" stroke="#F6851B" stroke-linecap="round" stroke-linejoin="round"/>
<path d="M14.5392 18.5061L9.41175 20.0061L7.70587 25.3198H12.2549L15.3039 25.359L12.9902 20.8492L14.5392 18.5061Z" fill="#F6851B" stroke="#F6851B" stroke-linecap="round" stroke-linejoin="round"/>
<path d="M21.5 21.0944L21.8235 15.4375L23.3137 11.4081H16.6961L18.1667 15.4375L18.5098 21.0944L18.6274 22.8787L18.6373 27.2708H21.3529L21.3725 22.8787L21.5 21.0944Z" fill="#F6851B" stroke="#F6851B" stroke-linecap="round" stroke-linejoin="round"/>
</g>
<defs>
<clipPath id="clip0_2024_140">
<rect width="40" height="40" rx="20" fill="white"/>
</clipPath>
</defs>
</svg>
